<svg width="144" height="32" viewBox="0 0 144 32" fill="none" xmlns="http://www.w3.org/2000/svg">
<path d="M139 0H31V32H139C141.761 32 144 29.7614 144 27V5C144 2.23858 141.761 0 139 0Z" fill="#0F1418"/>
<path d="M5 0.5H30.5V31.5H5C2.51472 31.5 0.5 29.4853 0.5 27V5C0.5 2.51472 2.51472 0.5 5 0.5Z" fill="white" stroke="#151A1E"/>
<path d="M25 7H7V25H25V7Z" fill="#ECEFF1"/>
<path d="M16 17.8931L25 25.0001V10.9691L16 17.8931Z" fill="#CFD8DC"/>
<path d="M25.75 7H25L16 14.107L7 7H6.25C5.008 7 4 8.008 4 9.25V22.75C4 23.992 5.008 25 6.25 25H7V10.969L16 17.8915L25 10.9675V25H25.75C26.992 25 28 23.992 28 22.75V9.25C28 8.008 26.992 7 25.75 7Z" fill="#F44336"/>
<path d="M76.9154 19.6523C76.5199 20.126 75.9608 20.4946 75.2381 20.7583C74.5155 21.0171 73.7147 21.1465 72.8358 21.1465C71.9129 21.1465 71.1024 20.9463 70.4042 20.5459C69.7108 20.1406 69.1737 19.5547 68.7928 18.7881C68.4169 18.0215 68.224 17.1206 68.2142 16.0854V15.3604C68.2142 14.2959 68.3924 13.3755 68.7489 12.5991C69.1102 11.8179 69.6278 11.2222 70.3016 10.812C70.9803 10.397 71.7738 10.1895 72.682 10.1895C73.9466 10.1895 74.9354 10.4922 75.6483 11.0977C76.3612 11.6982 76.7836 12.5747 76.9154 13.7271H74.7767C74.6791 13.1167 74.4618 12.6699 74.1249 12.3867C73.7928 12.1035 73.3338 11.9619 72.7479 11.9619C72.0008 11.9619 71.432 12.2427 71.0414 12.8042C70.6507 13.3657 70.453 14.2007 70.4481 15.3091V15.9902C70.4481 17.1084 70.6605 17.9531 71.0853 18.5244C71.5101 19.0957 72.1327 19.3813 72.953 19.3813C73.7782 19.3813 74.3666 19.2056 74.7181 18.854V17.0156H72.7186V15.397H76.9154V19.6523ZM80.9919 13.0752L81.0578 13.9614C81.6193 13.2729 82.3786 12.9287 83.3356 12.9287C84.3561 12.9287 85.0568 13.3315 85.4377 14.1372C85.9943 13.3315 86.7878 12.9287 87.818 12.9287C88.6774 12.9287 89.3171 13.1802 89.737 13.6831C90.1569 14.1812 90.3669 14.9331 90.3669 15.939V21H88.2429V15.9463C88.2429 15.4971 88.155 15.1699 87.9792 14.9648C87.8034 14.7549 87.4933 14.6499 87.049 14.6499C86.4142 14.6499 85.9748 14.9526 85.7306 15.5581L85.738 21H83.6213V15.9536C83.6213 15.4946 83.5309 15.1626 83.3503 14.9575C83.1696 14.7524 82.862 14.6499 82.4274 14.6499C81.8268 14.6499 81.3923 14.8989 81.1237 15.397V21H79.007V13.0752H80.9919ZM96.7725 21C96.6748 20.8096 96.604 20.5728 96.5601 20.2896C96.0474 20.8608 95.3809 21.1465 94.5605 21.1465C93.7842 21.1465 93.1396 20.9219 92.627 20.4727C92.1191 20.0234 91.8652 19.457 91.8652 18.7734C91.8652 17.9336 92.1753 17.2891 92.7954 16.8398C93.4204 16.3906 94.3213 16.1636 95.498 16.1587H96.4722V15.7046C96.4722 15.3384 96.377 15.0454 96.1865 14.8257C96.001 14.606 95.7056 14.4961 95.3003 14.4961C94.9438 14.4961 94.6631 14.5815 94.458 14.7524C94.2578 14.9233 94.1577 15.1577 94.1577 15.4556H92.041C92.041 14.9966 92.1826 14.5718 92.4658 14.1812C92.749 13.7905 93.1494 13.4854 93.667 13.2656C94.1846 13.041 94.7656 12.9287 95.4102 12.9287C96.3867 12.9287 97.1606 13.1753 97.7319 13.6685C98.3081 14.1567 98.5962 14.8452 98.5962 15.7339V19.1689C98.6011 19.9209 98.7061 20.4897 98.9111 20.8755V21H96.7725ZM95.022 19.5278C95.3345 19.5278 95.6226 19.4595 95.8862 19.3228C96.1499 19.1812 96.3452 18.9932 96.4722 18.7588V17.3965H95.6812C94.6216 17.3965 94.0576 17.7627 93.9893 18.4951L93.9819 18.6196C93.9819 18.8833 94.0747 19.1006 94.2603 19.2715C94.4458 19.4424 94.6997 19.5278 95.022 19.5278ZM102.636 21H100.512V13.0752H102.636V21ZM100.388 11.0244C100.388 10.707 100.493 10.4458 100.702 10.2407C100.917 10.0356 101.208 9.93311 101.574 9.93311C101.935 9.93311 102.223 10.0356 102.438 10.2407C102.653 10.4458 102.761 10.707 102.761 11.0244C102.761 11.3467 102.651 11.6104 102.431 11.8154C102.216 12.0205 101.93 12.123 101.574 12.123C101.218 12.123 100.93 12.0205 100.71 11.8154C100.495 11.6104 100.388 11.3467 100.388 11.0244ZM106.8 21H104.676V9.75H106.8V21Z" fill="white"/>
<path d="M139 0H5C2.23858 0 0 2.23858 0 5V27C0 29.7614 2.23857 32 5 32H139C141.761 32 144 29.7614 144 27V5C144 2.23858 141.761 0 139 0Z" fill="url(#paint0_linear)"/>
<defs>
<linearGradient id="paint0_linear" x1="0" y1="0" x2="0" y2="32" gradientUnits="userSpaceOnUse">
<stop stop-color="#BBBBBB" stop-opacity="0.1"/>
<stop offset="1" stop-opacity="0.1"/>
</linearGradient>
</defs>
</svg>
