  
<svg width="144" height="32" viewBox="0 0 144 32" fill="none" xmlns="http://www.w3.org/2000/svg">
<path d="M139 0H31V32H139C141.761 32 144 29.7614 144 27V5C144 2.23858 141.761 0 139 0Z" fill="#0F1418"/>
<path d="M31 0H5C2.23858 0 0 2.23858 0 5V27C0 29.7614 2.23858 32 5 32H31V0Z" fill="url(#paint0_linear)"/>
<path d="M15.9277 9.67035C12.5225 9.67035 9.7758 12.417 9.7758 15.8223C9.7758 19.2275 12.5225 21.9742 15.9277 21.9742C19.333 21.9742 22.0797 19.2275 22.0797 15.8223C22.0797 12.417 19.333 9.67035 15.9277 9.67035ZM15.9277 19.8218C13.7272 19.8218 11.9282 18.0282 11.9282 15.8223C11.9282 13.6164 13.7218 11.8227 15.9277 11.8227C18.1336 11.8227 19.9273 13.6164 19.9273 15.8223C19.9273 18.0282 18.1283 19.8218 15.9277 19.8218ZM23.7662 9.4187C23.7662 10.2165 23.1237 10.8536 22.3313 10.8536C21.5335 10.8536 20.8964 10.2111 20.8964 9.4187C20.8964 8.62629 21.5389 7.98379 22.3313 7.98379C23.1237 7.98379 23.7662 8.62629 23.7662 9.4187ZM27.8407 10.875C27.7497 8.95289 27.3107 7.25027 25.9025 5.84748C24.4997 4.44469 22.7971 4.00565 20.875 3.90928C18.8939 3.79684 12.9562 3.79684 10.9751 3.90928C9.05835 4.0003 7.35572 4.43934 5.94758 5.84213C4.53944 7.24492 4.10575 8.94754 4.00938 10.8697C3.89694 12.8507 3.89694 18.7885 4.00938 20.7695C4.1004 22.6917 4.53944 24.3943 5.94758 25.7971C7.35572 27.1999 9.05299 27.6389 10.9751 27.7353C12.9562 27.8477 18.8939 27.8477 20.875 27.7353C22.7971 27.6442 24.4997 27.2052 25.9025 25.7971C27.3053 24.3943 27.7443 22.6917 27.8407 20.7695C27.9532 18.7885 27.9532 12.8561 27.8407 10.875ZM25.2814 22.8951C24.8638 23.9445 24.0553 24.753 23.0006 25.176C21.4211 25.8024 17.6732 25.6579 15.9277 25.6579C14.1823 25.6579 10.429 25.7971 8.85489 25.176C7.80547 24.7584 6.997 23.9499 6.57402 22.8951C5.94758 21.3156 6.09214 17.5677 6.09214 15.8223C6.09214 14.0768 5.95294 10.3236 6.57402 8.74944C6.99164 7.70002 7.80012 6.89154 8.85489 6.46857C10.4344 5.84213 14.1823 5.98669 15.9277 5.98669C17.6732 5.98669 21.4264 5.84748 23.0006 6.46857C24.05 6.88619 24.8585 7.69467 25.2814 8.74944C25.9079 10.3289 25.7633 14.0768 25.7633 15.8223C25.7633 17.5677 25.9079 21.321 25.2814 22.8951Z" fill="white"/>
<path d="M55.8279 21H53.6306V10.3359H55.8279V21ZM60.1241 13.0752L60.19 13.9907C60.7564 13.2827 61.5157 12.9287 62.4678 12.9287C63.3077 12.9287 63.9327 13.1753 64.3428 13.6685C64.753 14.1616 64.9629 14.8989 64.9727 15.8804V21H62.856V15.9316C62.856 15.4824 62.7583 15.1577 62.563 14.9575C62.3677 14.7524 62.043 14.6499 61.5889 14.6499C60.9932 14.6499 60.5464 14.9038 60.2486 15.4116V21H58.1319V13.0752H60.1241ZM71.056 18.8101C71.056 18.5513 70.9266 18.3486 70.6678 18.2021C70.4139 18.0508 70.0038 17.9165 69.4374 17.7993C67.5526 17.4038 66.6102 16.603 66.6102 15.397C66.6102 14.6938 66.9007 14.1079 67.4818 13.6392C68.0677 13.1655 68.8319 12.9287 69.7743 12.9287C70.7801 12.9287 71.5834 13.1655 72.1839 13.6392C72.7894 14.1128 73.0921 14.728 73.0921 15.4849H70.9754C70.9754 15.1821 70.8778 14.9331 70.6825 14.7378C70.4872 14.5376 70.182 14.4375 69.767 14.4375C69.4105 14.4375 69.1346 14.5181 68.9393 14.6792C68.744 14.8403 68.6463 15.0454 68.6463 15.2944C68.6463 15.5288 68.7562 15.7192 68.9759 15.8657C69.2005 16.0073 69.5765 16.1318 70.1039 16.2393C70.6312 16.3418 71.0755 16.459 71.4369 16.5908C72.555 17.001 73.1141 17.7114 73.1141 18.7222C73.1141 19.4448 72.8041 20.0308 72.1839 20.48C71.5638 20.9243 70.763 21.1465 69.7816 21.1465C69.1175 21.1465 68.5267 21.0293 68.0091 20.7949C67.4964 20.5557 67.0936 20.231 66.8006 19.8208C66.5077 19.4058 66.3612 18.959 66.3612 18.4805H68.368C68.3876 18.8564 68.5267 19.1445 68.7855 19.3447C69.0443 19.5449 69.391 19.645 69.8255 19.645C70.2308 19.645 70.536 19.5693 70.7411 19.418C70.951 19.2617 71.056 19.0591 71.056 18.8101ZM77.1979 11.127V13.0752H78.5529V14.6279H77.1979V18.583C77.1979 18.876 77.2541 19.0859 77.3664 19.2129C77.4787 19.3398 77.6935 19.4033 78.0109 19.4033C78.2453 19.4033 78.4528 19.3862 78.6335 19.3521V20.9561C78.2184 21.083 77.7912 21.1465 77.3517 21.1465C75.8674 21.1465 75.1105 20.397 75.0812 18.8979V14.6279H73.924V13.0752H75.0812V11.127H77.1979ZM84.5044 21C84.4067 20.8096 84.3359 20.5728 84.292 20.2896C83.7793 20.8608 83.1128 21.1465 82.2925 21.1465C81.5161 21.1465 80.8716 20.9219 80.3589 20.4727C79.8511 20.0234 79.5972 19.457 79.5972 18.7734C79.5972 17.9336 79.9072 17.2891 80.5273 16.8398C81.1523 16.3906 82.0532 16.1636 83.23 16.1587H84.2041V15.7046C84.2041 15.3384 84.1089 15.0454 83.9185 14.8257C83.7329 14.606 83.4375 14.4961 83.0322 14.4961C82.6758 14.4961 82.395 14.5815 82.1899 14.7524C81.9897 14.9233 81.8896 15.1577 81.8896 15.4556H79.7729C79.7729 14.9966 79.9146 14.5718 80.1978 14.1812C80.481 13.7905 80.8813 13.4854 81.3989 13.2656C81.9165 13.041 82.4976 12.9287 83.1421 12.9287C84.1187 12.9287 84.8926 13.1753 85.4639 13.6685C86.04 14.1567 86.3281 14.8452 86.3281 15.7339V19.1689C86.333 19.9209 86.438 20.4897 86.6431 20.8755V21H84.5044ZM82.7539 19.5278C83.0664 19.5278 83.3545 19.4595 83.6182 19.3228C83.8818 19.1812 84.0771 18.9932 84.2041 18.7588V17.3965H83.4131C82.3535 17.3965 81.7896 17.7627 81.7212 18.4951L81.7139 18.6196C81.7139 18.8833 81.8066 19.1006 81.9922 19.2715C82.1777 19.4424 82.4316 19.5278 82.7539 19.5278ZM87.8265 16.979C87.8265 15.7632 88.1146 14.7842 88.6907 14.042C89.2718 13.2998 90.053 12.9287 91.0345 12.9287C91.9036 12.9287 92.5799 13.2266 93.0633 13.8223L93.1512 13.0752H95.0701V20.7363C95.0701 21.4297 94.9114 22.0327 94.5941 22.5454C94.2816 23.0581 93.8397 23.4487 93.2684 23.7173C92.6971 23.9858 92.0281 24.1201 91.2615 24.1201C90.6805 24.1201 90.1141 24.0029 89.5623 23.7686C89.0106 23.5391 88.5931 23.2412 88.3099 22.875L89.2474 21.5859C89.7747 22.1768 90.4144 22.4722 91.1663 22.4722C91.7279 22.4722 92.1649 22.3208 92.4774 22.0181C92.7899 21.7202 92.9461 21.2954 92.9461 20.7437V20.3188C92.4578 20.8706 91.8157 21.1465 91.0198 21.1465C90.0677 21.1465 89.2962 20.7754 88.7054 20.0332C88.1195 19.2861 87.8265 18.2974 87.8265 17.0669V16.979ZM89.9432 17.1328C89.9432 17.8506 90.0872 18.4146 90.3753 18.8247C90.6634 19.23 91.0589 19.4326 91.5618 19.4326C92.2064 19.4326 92.6678 19.1909 92.9461 18.7075V15.375C92.6629 14.8916 92.2064 14.6499 91.5765 14.6499C91.0687 14.6499 90.6683 14.8574 90.3753 15.2725C90.0872 15.6875 89.9432 16.3076 89.9432 17.1328ZM101.337 15.0601C101.048 15.021 100.795 15.0015 100.575 15.0015C99.7741 15.0015 99.2492 15.2725 99.0001 15.8145V21H96.8834V13.0752H98.8829L98.9415 14.02C99.3663 13.2925 99.9547 12.9287 100.707 12.9287C100.941 12.9287 101.161 12.9604 101.366 13.0239L101.337 15.0601ZM106.915 21C106.817 20.8096 106.746 20.5728 106.702 20.2896C106.189 20.8608 105.523 21.1465 104.703 21.1465C103.926 21.1465 103.282 20.9219 102.769 20.4727C102.261 20.0234 102.007 19.457 102.007 18.7734C102.007 17.9336 102.317 17.2891 102.937 16.8398C103.562 16.3906 104.463 16.1636 105.64 16.1587H106.614V15.7046C106.614 15.3384 106.519 15.0454 106.329 14.8257C106.143 14.606 105.848 14.4961 105.442 14.4961C105.086 14.4961 104.805 14.5815 104.6 14.7524C104.4 14.9233 104.3 15.1577 104.3 15.4556H102.183C102.183 14.9966 102.325 14.5718 102.608 14.1812C102.891 13.7905 103.291 13.4854 103.809 13.2656C104.327 13.041 104.908 12.9287 105.552 12.9287C106.529 12.9287 107.303 13.1753 107.874 13.6685C108.45 14.1567 108.738 14.8452 108.738 15.7339V19.1689C108.743 19.9209 108.848 20.4897 109.053 20.8755V21H106.915ZM105.164 19.5278C105.477 19.5278 105.765 19.4595 106.028 19.3228C106.292 19.1812 106.487 18.9932 106.614 18.7588V17.3965H105.823C104.764 17.3965 104.2 17.7627 104.131 18.4951L104.124 18.6196C104.124 18.8833 104.217 19.1006 104.402 19.2715C104.588 19.4424 104.842 19.5278 105.164 19.5278ZM112.529 13.0752L112.595 13.9614C113.157 13.2729 113.916 12.9287 114.873 12.9287C115.893 12.9287 116.594 13.3315 116.975 14.1372C117.532 13.3315 118.325 12.9287 119.355 12.9287C120.215 12.9287 120.854 13.1802 121.274 13.6831C121.694 14.1812 121.904 14.9331 121.904 15.939V21H119.78V15.9463C119.78 15.4971 119.692 15.1699 119.516 14.9648C119.341 14.7549 119.031 14.6499 118.586 14.6499C117.951 14.6499 117.512 14.9526 117.268 15.5581L117.275 21H115.158V15.9536C115.158 15.4946 115.068 15.1626 114.887 14.9575C114.707 14.7524 114.399 14.6499 113.965 14.6499C113.364 14.6499 112.929 14.8989 112.661 15.397V21H110.544V13.0752H112.529Z" fill="white"/>
<path d="M139 0H5C2.23858 0 0 2.23858 0 5V27C0 29.7614 2.23857 32 5 32H139C141.761 32 144 29.7614 144 27V5C144 2.23858 141.761 0 139 0Z" fill="url(#paint1_linear)"/>
<defs>
<linearGradient id="paint0_linear" x1="31" y1="9.53674e-07" x2="-6.81608e-07" y2="32" gradientUnits="userSpaceOnUse">
<stop stop-color="#A835B6"/>
<stop offset="0.578125" stop-color="#E94657"/>
<stop offset="1" stop-color="#FEBD59"/>
</linearGradient>
<linearGradient id="paint1_linear" x1="0" y1="0" x2="0" y2="32" gradientUnits="userSpaceOnUse">
<stop stop-color="#BBBBBB" stop-opacity="0.1"/>
<stop offset="1" stop-opacity="0.1"/>
</linearGradient>
</defs>
</svg>
