<svg width="144" height="32" viewBox="0 0 144 32" fill="none" xmlns="http://www.w3.org/2000/svg">
<path d="M139 0H31V32H139C141.761 32 144 29.7614 144 27V5C144 2.23858 141.761 0 139 0Z" fill="#0F1418"/>
<path d="M31 0H5C2.23858 0 0 2.23858 0 5V27C0 29.7614 2.23858 32 5 32H31V0Z" fill="#004880"/>
<path d="M9.92457 26H5.3634V11.3117H9.92457V26ZM7.64153 9.30811C6.18302 9.30811 5 8.10005 5 6.64153C5 5.94095 5.2783 5.26907 5.77369 4.77369C6.26907 4.2783 6.94095 4 7.64153 4C8.34211 4 9.01399 4.2783 9.50938 4.77369C10.0048 5.26907 10.2831 5.94095 10.2831 6.64153C10.2831 8.10005 9.09956 9.30811 7.64153 9.30811ZM26.9956 26H22.4442V18.8498C22.4442 17.1458 22.4099 14.9605 20.0728 14.9605C17.7014 14.9605 17.338 16.8118 17.338 18.7271V26H12.7817V11.3117H17.1563V13.3153H17.2201C17.829 12.1613 19.3165 10.9434 21.5357 10.9434C26.1519 10.9434 27.0005 13.9832 27.0005 17.9315V26H26.9956Z" fill="white"/>
<path d="M60.8837 19.2349H65.5492V21H58.6864V10.3359H60.8837V19.2349ZM69.3547 21H67.2307V13.0752H69.3547V21ZM67.1062 11.0244C67.1062 10.707 67.2111 10.4458 67.4211 10.2407C67.6359 10.0356 67.9265 9.93311 68.2927 9.93311C68.654 9.93311 68.9421 10.0356 69.1569 10.2407C69.3718 10.4458 69.4792 10.707 69.4792 11.0244C69.4792 11.3467 69.3693 11.6104 69.1496 11.8154C68.9348 12.0205 68.6491 12.123 68.2927 12.123C67.9362 12.123 67.6481 12.0205 67.4284 11.8154C67.2136 11.6104 67.1062 11.3467 67.1062 11.0244ZM73.2334 13.0752L73.2993 13.9907C73.8657 13.2827 74.625 12.9287 75.5772 12.9287C76.417 12.9287 77.042 13.1753 77.4522 13.6685C77.8623 14.1616 78.0723 14.8989 78.0821 15.8804V21H75.9654V15.9316C75.9654 15.4824 75.8677 15.1577 75.6724 14.9575C75.4771 14.7524 75.1524 14.6499 74.6983 14.6499C74.1026 14.6499 73.6558 14.9038 73.3579 15.4116V21H71.2412V13.0752H73.2334ZM82.7518 17.8213L81.9901 18.583V21H79.8734V9.75H81.9901V15.9829L82.4002 15.4556L84.429 13.0752H86.9706L84.1068 16.3784L87.2196 21H84.7879L82.7518 17.8213ZM91.5671 21.1465C90.4049 21.1465 89.4577 20.79 88.7253 20.0771C87.9977 19.3643 87.6339 18.4146 87.6339 17.228V17.0229C87.6339 16.2271 87.7878 15.5166 88.0954 14.8916C88.403 14.2617 88.8376 13.7783 89.3991 13.4414C89.9655 13.0996 90.61 12.9287 91.3327 12.9287C92.4167 12.9287 93.2687 13.2705 93.8888 13.9541C94.5138 14.6377 94.8263 15.6069 94.8263 16.8618V17.7261H89.7799C89.8483 18.2437 90.0534 18.6587 90.3952 18.9712C90.7419 19.2837 91.1789 19.4399 91.7062 19.4399C92.5216 19.4399 93.1588 19.1445 93.6178 18.5537L94.6579 19.7183C94.3405 20.1675 93.9108 20.519 93.3688 20.7729C92.8268 21.022 92.2262 21.1465 91.5671 21.1465ZM91.3254 14.6426C90.9054 14.6426 90.5636 14.7842 90.3 15.0674C90.0412 15.3506 89.8752 15.7559 89.8019 16.2832H92.7463V16.1147C92.7365 15.646 92.6095 15.2847 92.3654 15.0308C92.1213 14.772 91.7746 14.6426 91.3254 14.6426ZM95.8852 16.979C95.8852 15.7437 96.1611 14.7598 96.7129 14.0273C97.2695 13.2949 98.0288 12.9287 98.9907 12.9287C99.7622 12.9287 100.399 13.2168 100.902 13.793V9.75H103.026V21H101.115L101.012 20.1577C100.485 20.8169 99.8061 21.1465 98.9761 21.1465C98.0434 21.1465 97.2939 20.7803 96.7275 20.0479C96.166 19.3105 95.8852 18.2876 95.8852 16.979ZM98.0019 17.1328C98.0019 17.875 98.1313 18.4438 98.3901 18.8394C98.6489 19.2349 99.0249 19.4326 99.5181 19.4326C100.172 19.4326 100.634 19.1567 100.902 18.605V15.4775C100.639 14.9258 100.182 14.6499 99.5327 14.6499C98.5122 14.6499 98.0019 15.4775 98.0019 17.1328ZM107.586 21H105.389V10.3359H107.586V21ZM111.882 13.0752L111.948 13.9907C112.515 13.2827 113.274 12.9287 114.226 12.9287C115.066 12.9287 115.691 13.1753 116.101 13.6685C116.511 14.1616 116.721 14.8989 116.731 15.8804V21H114.614V15.9316C114.614 15.4824 114.517 15.1577 114.321 14.9575C114.126 14.7524 113.801 14.6499 113.347 14.6499C112.752 14.6499 112.305 14.9038 112.007 15.4116V21H109.89V13.0752H111.882Z" fill="white"/>
<path d="M139 0H5C2.23858 0 0 2.23858 0 5V27C0 29.7614 2.23857 32 5 32H139C141.761 32 144 29.7614 144 27V5C144 2.23858 141.761 0 139 0Z" fill="url(#paint0_linear)"/>
<defs>
<linearGradient id="paint0_linear" x1="0" y1="0" x2="0" y2="32" gradientUnits="userSpaceOnUse">
<stop stop-color="#BBBBBB" stop-opacity="0.1"/>
<stop offset="1" stop-opacity="0.1"/>
</linearGradient>
</defs>
</svg>
